<?xml version="1.0" encoding="UTF-8"?>
<svg id="Camada_1" xmlns="http://www.w3.org/2000/svg" version="1.1" viewBox="0 0 1920 1080">
  <!-- Generator: Adobe Illustrator 30.0.0, SVG Export Plug-In . SVG Version: 2.1.1 Build 123)  -->
  <defs>
    <style>
      .st0 {
        fill: #183059;
      }

      .st1 {
        fill: #b22234;
      }

      .st2 {
        fill: #f6f4f3;
      }
    </style>
  </defs>
  <g>
    <path class="st1" d="M739.37,785.24H238.34c11.32,11.56,23.42,22.34,36.24,32.25h428.54c12.82-9.91,24.92-20.69,36.24-32.25Z"/>
    <path class="st0" d="M360.1,741.84c-66.52-42.52-110.63-117.03-110.63-201.84,0-132.21,107.18-239.38,239.38-239.38s239.38,107.18,239.38,239.38c0,84.81-44.1,159.31-110.63,201.84h157.93c40.25-57.07,63.91-126.69,63.91-201.84,0-193.63-156.96-350.59-350.59-350.59s-350.59,156.96-350.59,350.59c0,75.15,23.65,144.77,63.91,201.84h157.93Z"/>
    <path class="st1" d="M347.46,860.88c43.25,19.09,91.08,29.71,141.39,29.71s98.14-10.62,141.39-29.71h-282.79Z"/>
  </g>
  <g>
    <polygon class="st2" points="194.31 494.92 203.1 521.98 231.54 521.98 208.53 538.7 217.32 565.75 194.31 549.03 171.29 565.75 180.08 538.7 157.07 521.98 185.52 521.98 194.31 494.92"/>
    <polygon class="st2" points="216.88 380.24 225.67 407.29 254.12 407.29 231.11 424.01 239.9 451.07 216.88 434.35 193.87 451.07 202.66 424.01 179.65 407.29 208.09 407.29 216.88 380.24"/>
    <polygon class="st2" points="278.91 288.16 287.7 315.22 316.15 315.22 293.14 331.94 301.93 358.99 278.91 342.27 255.9 358.99 264.69 331.94 241.68 315.22 270.12 315.22 278.91 288.16"/>
    <polygon class="st2" points="371.85 227.31 380.64 254.36 409.09 254.36 386.07 271.08 394.86 298.14 371.85 281.42 348.84 298.14 357.63 271.08 334.61 254.36 363.06 254.36 371.85 227.31"/>
    <polygon class="st2" points="487.05 206.27 495.84 233.32 524.29 233.32 501.27 250.05 510.06 277.1 487.05 260.38 464.03 277.1 472.83 250.05 449.81 233.32 478.26 233.32 487.05 206.27"/>
    <polygon class="st2" points="601.18 229.64 609.97 256.7 638.42 256.7 615.4 273.42 624.19 300.47 601.18 283.75 578.17 300.47 586.96 273.42 563.94 256.7 592.39 256.7 601.18 229.64"/>
    <polygon class="st2" points="695.51 290.97 704.3 318.03 732.75 318.03 709.74 334.75 718.53 361.8 695.51 345.08 672.5 361.8 681.29 334.75 658.28 318.03 686.72 318.03 695.51 290.97"/>
    <polygon class="st2" points="759.7 382.12 768.5 409.17 796.94 409.17 773.93 425.89 782.72 452.95 759.7 436.23 736.69 452.95 745.48 425.89 722.47 409.17 750.91 409.17 759.7 382.12"/>
    <polygon class="st2" points="783.4 494.92 792.19 521.98 820.64 521.98 797.62 538.7 806.42 565.75 783.4 549.03 760.39 565.75 769.18 538.7 746.16 521.98 774.61 521.98 783.4 494.92"/>
  </g>
  <path class="st0" d="M474.38,668.55c-14.9,0-27.91-3.72-39.02-11.17-11.12-7.45-19.87-17.7-26.24-30.76-6.37-13.06-9.55-27.58-9.55-43.56,0-16.84,3.72-31.91,11.17-45.17,7.45-13.28,17.91-23.81,31.41-31.58,13.5-7.77,29.52-11.65,48.1-11.65s34.05,3.88,47.11,11.65c13.06,7.77,23.1,18.25,30.12,31.42,7.02,13.17,10.53,27.96,10.53,44.37v57.96c0,13.59-11.02,24.61-24.61,24.61h0c-13.59,0-24.61-11.02-24.61-24.61v-1.95h-.97c-3.23,5.83-7.29,11.07-12.15,15.7-4.85,4.65-10.63,8.26-17.32,10.85-6.69,2.59-14.68,3.88-23.96,3.88ZM489.28,625.16c7.77,0,14.41-1.89,19.91-5.66,5.51-3.78,9.83-9.01,12.96-15.7,3.13-6.69,4.7-14.14,4.7-22.34s-1.52-15.22-4.54-21.7c-3.03-6.48-7.39-11.61-13.12-15.38-5.71-3.78-12.35-5.67-19.91-5.67s-14.57,1.94-20.4,5.83c-5.83,3.88-10.26,9.01-13.28,15.38-3.02,6.37-4.53,13.55-4.53,21.54s1.51,15.65,4.53,22.34c3.02,6.69,7.39,11.92,13.12,15.7,5.71,3.77,12.58,5.66,20.57,5.66Z"/>
  <path class="st0" d="M641.86,488.94c-1.68-10.05-7.42-17.58-16.14-21.21-8.71-3.62-18.28-2.49-27.68,3.27-8.27,5.06-15.89,13.38-22.04,24.05-6.07,10.53-8.3,19.17-6.81,26.43,1.51,7.34,6.86,12.96,15.89,16.71,5.25,2.18,10.59,3.28,15.82,3.28,3.88,0,7.7-.6,11.38-1.82,9.27-3.05,17.22-9.96,23-19.98,5.86-10.17,8.2-21.09,6.58-30.74Z"/>
  <path class="st0" d="M530.63,488.31c1.47.12,2.92.17,4.35.17,9.72,0,18.34-2.69,25.14-7.88,8.38-6.39,13.53-16.43,14.92-29.04,1.41-12.81-1.28-25.21-7.58-34.92-6.53-10.06-16.15-16.08-27.09-16.95-10.89-.86-20.47,3.59-27.69,12.87-3.19,4.1-5.83,9.01-7.85,14.58-2.02,5.57-3.43,11.79-4.17,18.52-1.46,13.27.27,23.2,5.28,30.38,5.05,7.24,13.36,11.36,24.68,12.25Z"/>
  <path class="st0" d="M392.63,538.19c9.04-3.75,14.38-9.38,15.89-16.72,1.49-7.26-.74-15.9-6.81-26.43-6.15-10.67-13.77-18.98-22.04-24.05-9.39-5.76-18.97-6.89-27.68-3.27-8.73,3.63-14.46,11.16-16.15,21.21-1.62,9.66.72,20.58,6.58,30.74,5.78,10.01,13.73,16.93,23,19.98,3.68,1.21,7.5,1.82,11.38,1.82,5.22,0,10.57-1.1,15.82-3.28Z"/>
  <path class="st0" d="M417.47,480.61c6.8,5.19,15.42,7.88,25.14,7.88,1.43,0,2.88-.06,4.35-.17,11.33-.9,19.63-5.02,24.68-12.25,3.87-5.54,5.78-12.73,5.78-21.82,0-2.69-.17-5.54-.5-8.56-1.48-13.45-5.63-24.9-12.01-33.1-7.22-9.28-16.79-13.73-27.69-12.87-10.94.87-20.56,6.88-27.09,16.95-6.3,9.7-8.99,22.11-7.58,34.92,1.39,12.61,6.54,22.65,14.92,29.04Z"/>
  <g>
    <g>
      <path class="st1" d="M946.02,586.08c-8.56,0-16.26-2.18-23.1-6.52-6.85-4.34-12.25-10.37-16.2-18.07-3.94-7.7-5.92-16.68-5.92-26.96,0-10.92,2.43-20.57,7.31-28.93,4.86-8.36,11.61-14.91,20.24-19.65,8.62-4.74,18.66-7.11,30.12-7.11s20.93,2.27,29.22,6.82c8.3,4.54,14.78,10.86,19.46,18.96,4.67,8.1,7.01,17.48,7.01,28.14v36.43c0,7.91-6.41,14.32-14.32,14.32h-7.31c-7.91,0-14.32-6.41-14.32-14.32v-.89h-1.18c-1.72,3.56-3.98,6.68-6.82,9.38-2.83,2.7-6.22,4.77-10.17,6.22-3.95,1.45-8.62,2.18-14.02,2.18ZM957.67,552.9c3.55,0,6.68-.85,9.38-2.56,2.69-1.71,4.8-4.11,6.32-7.21,1.51-3.09,2.27-6.61,2.27-10.56s-.76-7.17-2.27-10.07c-1.51-2.9-3.62-5.2-6.32-6.91-2.7-1.71-5.83-2.56-9.38-2.56s-6.52.85-9.28,2.56c-2.77,1.72-4.91,4.02-6.42,6.91s-2.27,6.25-2.27,10.07.76,7.47,2.27,10.56c1.51,3.1,3.65,5.5,6.42,7.21,2.76,1.71,5.86,2.56,9.28,2.56Z"/>
      <path class="st1" d="M1045.45,583.51c-7.91,0-14.32-6.41-14.32-14.32v-45.32c0-9.22,2.04-17.18,6.12-23.89,4.08-6.72,9.77-11.92,17.08-15.6,7.3-3.68,15.89-5.53,25.77-5.53,5.14,0,9.88.49,14.22,1.48,4.34.99,8.22,2.31,11.65,3.95,3.42,1.65,6.32,3.52,8.69,5.63h.59c2.5-2.11,5.43-3.98,8.79-5.63,3.36-1.64,7.21-2.96,11.56-3.95,4.34-.99,9.08-1.48,14.22-1.48,10,0,18.69,1.85,26.07,5.53,7.37,3.69,13.09,8.89,17.18,15.6,4.08,6.71,6.13,14.68,6.13,23.89v45.32c0,7.91-6.41,14.32-14.32,14.32h-9.49c-7.91,0-14.32-6.41-14.32-14.32v-42.75c0-2.5-.53-4.77-1.58-6.82-1.06-2.04-2.57-3.72-4.54-5.03-1.97-1.31-4.41-1.97-7.31-1.97s-5.36.66-7.4,1.97c-2.04,1.31-3.59,3-4.64,5.03-1.06,2.04-1.58,4.31-1.58,6.82v42.75c0,7.91-6.41,14.32-14.32,14.32h-9.08c-7.91,0-14.32-6.41-14.32-14.32v-42.75c0-2.5-.56-4.77-1.68-6.82-1.12-2.04-2.73-3.72-4.84-5.03-2.11-1.31-4.61-1.97-7.51-1.97s-5.17.66-7.21,1.97c-2.04,1.31-3.59,3-4.64,5.03-1.05,2.04-1.58,4.31-1.58,6.82v42.75c0,7.91-6.41,14.32-14.32,14.32h-9.08Z"/>
      <path class="st1" d="M1345.42,583.51c-7.91,0-14.32-6.41-14.32-14.32v-56.18c0-9.74,2.83-17.45,8.49-23.1,5.66-5.66,13.56-8.49,23.7-8.49h18.46c7.91,0,14.32,6.41,14.32,14.32h0c0,7.91-6.41,14.32-14.32,14.32h-5.23c-2.24,0-4.05.69-5.43,2.08-1.38,1.38-2.08,3.19-2.08,5.43v51.64c0,7.91-6.41,14.32-14.32,14.32h-9.28Z"/>
      <path class="st1" d="M1426.28,470.75c-5.53,0-10.27-2-14.22-6.02-3.95-4.02-5.93-8.72-5.93-14.12s1.98-10.3,5.93-14.32c3.95-4.02,8.69-6.03,14.22-6.03s10.27,2.01,14.22,6.03c3.95,4.02,5.92,8.79,5.92,14.32s-1.97,10.1-5.92,14.12c-3.95,4.02-8.69,6.02-14.22,6.02ZM1407.33,569.2v-73.66c0-7.91,6.41-14.32,14.32-14.32h9.28c7.91,0,14.32,6.41,14.32,14.32v73.66c0,7.91-6.41,14.32-14.32,14.32h-9.28c-7.91,0-14.32-6.41-14.32-14.32Z"/>
      <path class="st1" d="M1514.75,583.51c-10.66,0-20.14-2.14-28.44-6.42-8.3-4.28-14.81-10.23-19.55-17.87-4.74-7.63-7.11-16.52-7.11-26.66s2.37-19.06,7.11-26.76c4.74-7.7,11.25-13.72,19.55-18.07,8.3-4.34,17.77-6.51,28.44-6.51h5.83c7.91,0,14.32,6.41,14.32,14.32v2.57c0,7.91-6.41,14.32-14.32,14.32h-2.47c-4.21,0-7.87.89-10.96,2.66-3.1,1.78-5.5,4.18-7.21,7.21-1.72,3.03-2.57,6.45-2.57,10.27s.85,7.28,2.57,10.37c1.71,3.1,4.11,5.53,7.21,7.31,3.09,1.77,6.74,2.66,10.96,2.66h2.47c7.91,0,14.32,6.41,14.32,14.32v1.98c0,7.91-6.41,14.32-14.32,14.32h-5.83Z"/>
      <path class="st1" d="M1591.37,586.08c-8.56,0-16.26-2.18-23.11-6.52-6.84-4.34-12.24-10.37-16.19-18.07-3.95-7.7-5.92-16.68-5.92-26.96,0-10.92,2.43-20.57,7.3-28.93,4.87-8.36,11.62-14.91,20.25-19.65,8.62-4.74,18.66-7.11,30.11-7.11s20.94,2.27,29.23,6.82c8.3,4.54,14.78,10.86,19.45,18.96,4.67,8.1,7.01,17.48,7.01,28.14v36.43c0,7.91-6.41,14.32-14.32,14.32h-7.31c-7.91,0-14.32-6.41-14.32-14.32v-.89h-1.19c-1.71,3.56-3.98,6.68-6.81,9.38-2.83,2.7-6.22,4.77-10.17,6.22-3.95,1.45-8.62,2.18-14.02,2.18ZM1603.02,552.9c3.56,0,6.68-.85,9.38-2.56,2.69-1.71,4.8-4.11,6.32-7.21,1.51-3.09,2.27-6.61,2.27-10.56s-.76-7.17-2.27-10.07c-1.52-2.9-3.63-5.2-6.32-6.91-2.7-1.71-5.82-2.56-9.38-2.56s-6.51.85-9.28,2.56c-2.77,1.72-4.9,4.02-6.42,6.91-1.52,2.9-2.27,6.25-2.27,10.07s.76,7.47,2.27,10.56c1.51,3.1,3.65,5.5,6.42,7.21,2.77,1.71,5.86,2.56,9.28,2.56Z"/>
      <path class="st1" d="M1690.8,583.51c-7.91,0-14.32-6.41-14.32-14.32v-44.53c0-8.81,2.23-16.68,6.72-23.6,4.47-6.91,10.73-12.34,18.76-16.29,8.03-3.94,17.38-5.92,28.04-5.92s19.88,1.98,27.65,5.92c7.77,3.95,13.72,9.39,17.87,16.29,4.15,6.91,6.22,14.78,6.22,23.6v44.53c0,7.91-6.41,14.32-14.32,14.32h-9.28c-7.91,0-14.32-6.41-14.32-14.32v-42.16c0-2.5-.59-4.84-1.77-7.01-1.19-2.17-2.87-3.95-5.04-5.33-2.17-1.38-4.77-2.07-7.8-2.07s-5.7.69-8,2.07c-2.31,1.38-4.05,3.16-5.23,5.33-1.18,2.18-1.78,4.52-1.78,7.01v42.16c0,7.91-6.41,14.32-14.32,14.32h-9.08Z"/>
      <path class="st1" d="M1313.1,534.74c-3.44,5.87-9.74,9.48-16.54,9.48h-44.14c.53,2.23,1.51,4.11,2.96,5.63,1.45,1.51,3.42,2.6,5.92,3.26,2.5.66,5.33.99,8.49.99h21.82c8.12,0,14.71,6.59,14.71,14.71h0c0,8.12-6.59,14.71-14.71,14.71h-18.46c-11.46,0-21.66-1.97-30.61-5.92-8.95-3.95-16.03-9.71-21.23-17.28-5.2-7.57-7.8-16.81-7.8-27.75,0-11.98,2.56-21.92,7.7-29.82,5.13-7.89,11.82-13.85,20.05-17.87,8.22-4.01,16.88-6.02,25.96-6.02s17.74,1.95,25.18,5.82c7.43,3.88,13.36,9.45,17.77,16.69,2.95,4.84,5.43,10.27,6.34,16.43.81,5.49-.35,11.7-3.3,16.75l-.11.19ZM1250.64,523.29h31.2c0-1.58-.2-3.09-.59-4.54-.4-1.45-1.03-2.79-1.88-4.05-.85-1.25-1.87-2.37-3.06-3.36-1.18-.99-2.6-1.74-4.24-2.27-1.65-.53-3.46-.79-5.44-.79-2.5,0-4.71.39-6.61,1.18-1.91.79-3.52,1.85-4.84,3.16-1.32,1.31-2.34,2.89-3.06,4.74-.72,1.84-1.22,3.82-1.48,5.92Z"/>
    </g>
    <g>
      <path class="st0" d="M900.8,329.9v-.2c0-7.91,6.41-14.32,14.32-14.32h51.74c7.91,0,14.32,6.41,14.32,14.32v.2c0,7.91-6.41,14.32-14.32,14.32h-51.74c-7.91,0-14.32-6.41-14.32-14.32ZM948.2,417.68c-10.01,0-17.84-2.83-23.5-8.49-5.67-5.66-8.49-13.36-8.49-23.11v-80.08c0-7.91,6.41-14.32,14.32-14.32h9.28c7.91,0,14.32,6.41,14.32,14.32v76.52c0,1.32.46,2.41,1.38,3.26.92.86,2.04,1.28,3.36,1.28h8c7.91,0,14.32,6.41,14.32,14.32v1.98c0,7.91-6.41,14.32-14.32,14.32h-18.66Z"/>
      <path class="st0" d="M1010.1,417.68c-7.91,0-14.32-6.41-14.32-14.32v-56.19c0-9.74,2.83-17.44,8.49-23.1,5.66-5.66,13.56-8.49,23.7-8.49h18.46c7.91,0,14.32,6.41,14.32,14.32h0c0,7.91-6.41,14.32-14.32,14.32h-5.23c-2.24,0-4.05.69-5.43,2.07-1.38,1.38-2.08,3.19-2.08,5.43v51.64c0,7.91-6.41,14.32-14.32,14.32h-9.28Z"/>
      <path class="st0" d="M1125.53,420.24c-10.66,0-20.01-2-28.04-6.02-8.03-4.02-14.28-9.48-18.76-16.39-4.48-6.91-6.71-14.78-6.71-23.6v-44.53c0-7.91,6.41-14.32,14.32-14.32h9.08c7.91,0,14.32,6.41,14.32,14.32v42.16c0,2.37.59,4.67,1.77,6.91,1.19,2.24,2.93,4.05,5.23,5.43,2.31,1.38,4.97,2.07,8,2.07s5.63-.69,7.8-2.07c2.17-1.38,3.85-3.19,5.03-5.43,1.18-2.24,1.77-4.54,1.77-6.91v-42.16c0-7.91,6.41-14.32,14.32-14.32h9.28c7.91,0,14.32,6.41,14.32,14.32v44.53c0,8.82-2.08,16.69-6.22,23.6-4.14,6.91-10.1,12.38-17.87,16.39-7.77,4.02-16.98,6.02-27.65,6.02Z"/>
      <path class="st0" d="M1288.11,368.56c-3.44,5.87-9.74,9.48-16.54,9.48h-44.14c.53,2.23,1.51,4.11,2.96,5.63,1.45,1.51,3.42,2.6,5.92,3.26,2.5.66,5.33.99,8.49.99h21.82c8.12,0,14.71,6.59,14.71,14.71h0c0,8.12-6.59,14.71-14.71,14.71h-18.46c-11.46,0-21.66-1.97-30.61-5.92-8.95-3.95-16.03-9.71-21.23-17.28-5.2-7.57-7.8-16.81-7.8-27.75,0-11.98,2.56-21.92,7.7-29.82,5.13-7.89,11.82-13.85,20.05-17.87,8.22-4.01,16.88-6.02,25.96-6.02s17.74,1.95,25.18,5.82c7.43,3.88,13.36,9.45,17.77,16.69,2.95,4.84,5.43,10.27,6.34,16.43.81,5.49-.35,11.7-3.3,16.75l-.11.19ZM1225.65,357.11h31.2c0-1.58-.2-3.09-.59-4.54-.4-1.45-1.03-2.79-1.88-4.05-.85-1.25-1.87-2.37-3.06-3.36-1.18-.99-2.6-1.74-4.24-2.27-1.65-.53-3.46-.79-5.44-.79-2.5,0-4.71.39-6.61,1.18-1.91.79-3.52,1.85-4.84,3.16-1.32,1.31-2.34,2.89-3.06,4.74-.72,1.84-1.22,3.82-1.48,5.92Z"/>
    </g>
    <g>
      <path class="st0" d="M957.48,644.54c8.55,0,16.29,1.32,23.2,3.95,6.91,2.64,12.86,6.42,17.87,11.35,5,4.94,8.85,10.77,11.55,17.48,2.69,6.72,4.05,14.16,4.05,22.32,0,10.41-2.14,19.52-6.42,27.35-4.28,7.84-10.11,13.92-17.48,18.27-7.38,4.34-15.6,6.52-24.69,6.52-3.55,0-6.91-.39-10.07-1.18-3.16-.8-6.05-1.95-8.69-3.46s-4.94-3.46-6.91-5.83h-1.19v36.53c0,7.42-6.01,13.43-13.43,13.43h-11.06c-7.42,0-13.43-6.01-13.43-13.43v-77.81c0-11.19,2.37-20.93,7.11-29.22,4.74-8.3,11.38-14.74,19.94-19.35,8.56-4.61,18.43-6.91,29.62-6.91ZM957.48,677.71c-3.43,0-6.52.86-9.29,2.57-2.76,1.72-4.9,4.08-6.42,7.11s-2.27,6.58-2.27,10.66c0,3.69.76,7.01,2.27,9.97,1.51,2.96,3.65,5.3,6.42,7.01,2.77,1.71,5.86,2.56,9.29,2.56s6.68-.85,9.38-2.56c2.69-1.71,4.8-4.05,6.32-7.01,1.51-2.96,2.27-6.28,2.27-9.97,0-4.08-.76-7.63-2.27-10.66s-3.62-5.4-6.32-7.11c-2.7-1.71-5.83-2.57-9.38-2.57Z"/>
      <path class="st0" d="M1138.76,662.51v-1.97c0-7.42,6.01-13.43,13.43-13.43h53.52c7.42,0,13.43,6.01,13.43,13.43v1.97c0,7.42-6.01,13.43-13.43,13.43h-53.52c-7.42,0-13.43-6.01-13.43-13.43ZM1186.15,749.4c-10,0-17.84-2.83-23.5-8.49-5.66-5.66-8.49-13.36-8.49-23.1v-80.97c0-7.42,6.01-13.43,13.43-13.43h11.06c7.42,0,13.43,6.01,13.43,13.43v77.41c0,1.32.46,2.41,1.38,3.26.92.86,2.04,1.28,3.36,1.28h8.89c7.42,0,13.43,6.01,13.43,13.43v3.75c0,7.42-6.01,13.43-13.43,13.43h-19.55Z"/>
      <path class="st0" d="M1234.14,735.97h0c0-7.42,6.01-13.43,13.43-13.43h34.36c1.05,0,1.91-.22,2.57-.69.66-.46,1.18-1.05,1.58-1.77s.59-1.49.59-2.27-.2-1.54-.59-2.27-.92-1.29-1.58-1.68c-.66-.39-1.52-.59-2.57-.59h-15.4c-6.72,0-12.84-1.15-18.37-3.45-5.53-2.31-9.91-5.93-13.13-10.87-3.23-4.94-4.84-11.29-4.84-19.06,0-6.05,1.48-11.56,4.44-16.49,2.96-4.94,7.01-8.89,12.14-11.84,5.14-2.96,10.79-4.44,16.98-4.44h38.51c7.42,0,13.43,6.01,13.43,13.43h0c0,7.42-6.01,13.43-13.43,13.43h-29.62c-1.31,0-2.41.46-3.26,1.38s-1.28,1.97-1.28,3.16.43,2.23,1.28,3.16c.85.93,1.95,1.39,3.26,1.39h14.22c7.64,0,14.25,1.15,19.85,3.45,5.59,2.31,9.91,5.9,12.93,10.77,3.03,4.87,4.54,11.19,4.54,18.96,0,6.05-1.54,11.59-4.64,16.59-3.09,5-7.2,9.02-12.34,12.04-5.13,3.03-10.93,4.54-17.38,4.54h-42.26c-7.42,0-13.43-6.01-13.43-13.43Z"/>
      <path class="st0" d="M1124.41,700.53c-3.44,5.87-9.74,9.48-16.54,9.48h-44.14c.53,2.23,1.51,4.11,2.96,5.63,1.45,1.51,3.42,2.6,5.92,3.26,2.5.66,5.33.99,8.49.99h21.82c8.12,0,14.71,6.59,14.71,14.71h0c0,8.12-6.59,14.71-14.71,14.71h-18.46c-11.46,0-21.66-1.97-30.61-5.92-8.95-3.95-16.03-9.71-21.23-17.28-5.2-7.57-7.8-16.81-7.8-27.75,0-11.98,2.56-21.92,7.7-29.82,5.13-7.89,11.82-13.85,20.05-17.87,8.22-4.01,16.88-6.02,25.96-6.02s17.74,1.95,25.18,5.82c7.43,3.88,13.36,9.45,17.77,16.69,2.95,4.84,5.43,10.27,6.34,16.43.81,5.49-.35,11.7-3.3,16.75l-.11.19ZM1061.95,689.08h31.2c0-1.58-.2-3.09-.59-4.54-.4-1.45-1.03-2.79-1.88-4.05-.85-1.25-1.87-2.37-3.06-3.36-1.18-.99-2.6-1.74-4.24-2.27-1.65-.53-3.46-.79-5.44-.79-2.5,0-4.71.39-6.61,1.18-1.91.79-3.52,1.85-4.84,3.16-1.32,1.31-2.34,2.89-3.06,4.74-.72,1.84-1.22,3.82-1.48,5.92Z"/>
    </g>
  </g>
</svg>